<svg xmlns="http://www.w3.org/2000/svg" xmlns:xlink="http://www.w3.org/1999/xlink" width="500" zoomAndPan="magnify" viewBox="0 0 375 374.999991" height="500" preserveAspectRatio="xMidYMid meet" version="1.0"><defs><g/><clipPath id="2d785a268a"><path d="M 18.621094 9.472656 L 356 9.472656 L 356 346.222656 L 18.621094 346.222656 Z M 18.621094 9.472656 " clip-rule="nonzero"/></clipPath></defs><rect x="-37.5" width="450" fill="#ffffff" y="-37.499999" height="449.999989" fill-opacity="1"/><rect x="-37.5" width="450" fill="#ffffff" y="-37.499999" height="449.999989" fill-opacity="1"/><rect x="-37.5" width="450" fill="#ffffff" y="-37.499999" height="449.999989" fill-opacity="1"/><g clip-path="url(#2d785a268a)"><path fill="#002852" d="M 18.761719 179.214844 C 18.761719 178.234375 18.761719 177.394531 18.761719 176.199219 C 26.335938 175.148438 33.835938 174.097656 41.339844 173.113281 C 46.738281 172.414062 52.140625 171.992188 57.46875 170.871094 C 60.0625 170.378906 62.515625 168.695312 64.972656 167.574219 C 68.40625 166.03125 72.753906 165.257812 74.929688 162.734375 C 77.03125 160.277344 76.753906 155.929688 77.734375 152.421875 C 79.136719 147.441406 80.679688 142.460938 82.363281 137.550781 C 82.921875 135.871094 82.78125 134.675781 81.730469 133.273438 C 79.347656 130.117188 76.890625 126.960938 74.789062 123.59375 C 74.15625 122.613281 74.085938 120.789062 74.648438 119.738281 C 76.332031 116.300781 78.503906 113.074219 80.328125 109.707031 C 81.167969 108.09375 82.292969 107.53125 84.113281 107.742188 C 87.832031 108.234375 91.617188 108.375 95.335938 108.933594 C 97.367188 109.214844 98.558594 108.722656 99.824219 107.179688 C 107.605469 97.363281 116.933594 89.296875 127.519531 82.632812 C 137.476562 76.460938 146.453125 78.632812 152.484375 88.664062 C 181.304688 136.992188 210.195312 185.25 239.015625 233.578125 C 239.644531 234.628906 240.277344 235.679688 241.1875 237.011719 C 262.996094 215.058594 271.621094 189.386719 264.890625 159.4375 C 257.878906 128.082031 233.617188 108.09375 211.386719 101.710938 C 220.433594 128.011719 229.410156 153.964844 238.3125 179.988281 C 238.101562 180.058594 237.894531 180.199219 237.683594 180.269531 C 215.242188 142.671875 192.804688 105.148438 170.503906 67.761719 C 171.417969 66.570312 172.257812 65.585938 172.820312 64.535156 C 175.132812 60.046875 177.449219 55.488281 179.621094 50.925781 C 179.972656 50.226562 179.972656 49.316406 180.042969 48.472656 C 181.726562 36.199219 183.339844 23.921875 185.089844 11.648438 C 185.230469 10.875 186.351562 10.246094 186.984375 9.472656 C 187.617188 10.246094 188.667969 10.945312 188.738281 11.71875 C 190.492188 23.78125 192.03125 35.847656 193.785156 47.910156 C 194.066406 49.804688 195.257812 51.628906 196.101562 53.453125 C 197.714844 57.171875 199.324219 60.886719 201.148438 64.535156 C 201.640625 65.515625 202.902344 66.5 204.023438 66.78125 C 211.808594 69.023438 219.660156 71.128906 227.515625 73.09375 C 228.707031 73.371094 230.390625 73.09375 231.441406 72.460938 C 234.527344 70.496094 237.472656 68.324219 240.347656 66.078125 C 242.171875 64.675781 243.644531 64.394531 245.675781 65.726562 C 248.621094 67.691406 251.707031 69.375 254.863281 70.988281 C 256.757812 71.96875 257.246094 73.304688 257.035156 75.265625 C 256.546875 79.054688 256.054688 82.914062 255.84375 86.769531 C 255.773438 87.890625 256.476562 89.367188 257.246094 90.207031 C 262.925781 96.027344 268.605469 101.78125 274.425781 107.390625 C 275.339844 108.234375 276.882812 108.863281 278.074219 108.792969 C 282 108.585938 285.925781 107.953125 289.921875 107.8125 C 291.046875 107.742188 292.660156 108.652344 293.359375 109.636719 C 295.535156 112.863281 297.214844 116.300781 299.25 119.597656 C 300.230469 121.140625 300.160156 122.332031 299.039062 123.804688 C 296.65625 126.960938 294.269531 130.117188 292.097656 133.414062 C 291.464844 134.394531 291.328125 136.078125 291.605469 137.273438 C 293.570312 145.058594 295.605469 152.773438 297.777344 160.488281 C 298.128906 161.609375 298.96875 162.945312 299.953125 163.503906 C 304.507812 165.960938 309.136719 168.203125 313.835938 170.449219 C 314.957031 170.941406 316.289062 170.941406 317.480469 171.082031 C 329.050781 172.625 340.621094 174.167969 352.191406 175.710938 C 353.105469 175.851562 354.015625 176.058594 354.855469 176.269531 C 355.980469 179.007812 354.507812 179.566406 352.332031 179.847656 C 340.761719 181.320312 329.121094 182.652344 317.621094 184.546875 C 314.1875 185.109375 311.101562 187.492188 307.734375 188.476562 C 300.441406 190.507812 296.65625 194.648438 296.023438 202.574219 C 295.605469 207.90625 292.9375 213.09375 291.464844 218.425781 C 291.1875 219.546875 291.324219 221.089844 291.957031 222.003906 C 294.132812 225.441406 296.796875 228.527344 298.96875 231.964844 C 299.601562 232.945312 299.671875 234.769531 299.179688 235.820312 C 297.425781 239.328125 295.464844 242.835938 293.21875 246.0625 C 292.589844 246.972656 290.90625 247.816406 289.785156 247.746094 C 285.925781 247.605469 282.070312 247.183594 278.285156 246.621094 C 276.390625 246.34375 275.269531 246.902344 274.074219 248.375 C 266.152344 258.195312 256.824219 266.472656 246.097656 273.066406 C 236.492188 279.027344 227.304688 276.785156 221.554688 267.175781 C 192.945312 219.269531 164.265625 171.289062 135.65625 123.382812 C 134.742188 121.839844 133.832031 120.367188 132.640625 118.542969 C 110.902344 140.429688 101.996094 166.101562 108.9375 196.050781 C 115.601562 224.667969 133.902344 243.535156 161.109375 253.847656 C 161.390625 253.707031 161.671875 253.496094 162.019531 253.355469 C 153.117188 227.542969 144.28125 201.800781 135.375 175.992188 C 135.585938 175.921875 135.863281 175.78125 136.074219 175.710938 C 158.445312 213.164062 180.8125 250.621094 202.902344 287.585938 C 201.640625 290.109375 200.589844 292.285156 199.464844 294.390625 C 197.714844 297.828125 195.960938 301.191406 194.277344 304.628906 C 193.925781 305.332031 193.925781 306.242188 193.785156 307.085938 C 192.101562 319.359375 190.492188 331.632812 188.738281 343.910156 C 188.597656 344.75 187.617188 345.453125 186.984375 346.222656 C 186.28125 345.382812 185.160156 344.679688 185.019531 343.769531 C 183.269531 331.84375 181.796875 319.851562 179.972656 307.855469 C 179.691406 305.824219 178.429688 303.929688 177.589844 302.035156 C 175.976562 298.386719 174.503906 294.738281 172.679688 291.234375 C 172.117188 290.179688 170.785156 289.128906 169.59375 288.777344 C 161.878906 286.605469 154.167969 284.5 146.382812 282.605469 C 145.121094 282.253906 143.296875 282.535156 142.246094 283.238281 C 138.949219 285.269531 136.074219 287.867188 132.78125 289.832031 C 131.726562 290.460938 129.765625 290.601562 128.644531 290.039062 C 125.207031 288.355469 121.839844 286.394531 118.613281 284.289062 C 117.632812 283.65625 116.792969 282.042969 116.792969 280.851562 C 116.933594 276.996094 117.421875 273.207031 117.914062 269.347656 C 118.125 267.523438 117.5625 266.332031 116.230469 265.070312 C 110.550781 259.597656 104.941406 253.988281 99.472656 248.304688 C 98.28125 247.042969 97.296875 246.484375 95.476562 246.761719 C 91.546875 247.324219 87.621094 247.746094 83.625 247.886719 C 82.574219 247.957031 81.03125 247.183594 80.398438 246.273438 C 78.15625 242.90625 76.121094 239.328125 74.296875 235.75 C 73.808594 234.839844 73.949219 233.085938 74.507812 232.171875 C 76.542969 229.015625 78.714844 225.929688 81.03125 223.054688 C 82.433594 221.300781 82.503906 219.898438 81.871094 217.722656 C 79.628906 210.359375 77.875 202.855469 75.839844 195.488281 C 75.488281 194.367188 74.789062 192.894531 73.878906 192.402344 C 69.25 189.878906 64.621094 187.28125 59.710938 185.390625 C 56.90625 184.265625 53.542969 184.335938 50.457031 183.917969 C 40.570312 182.582031 30.613281 181.320312 20.722656 179.988281 C 20.304688 179.636719 19.601562 179.425781 18.761719 179.214844 Z M 18.761719 179.214844 " fill-opacity="1" fill-rule="nonzero"/></g><g fill="#eb1d27" fill-opacity="1"><g transform="translate(180.308577, 74.279103)"><g><path d="M 3.59375 0 L 2.03125 0 L 2.03125 -13.484375 L 3.984375 -13.484375 L 10.5625 -3.1875 L 10.796875 -3.21875 L 10.796875 -13.484375 L 12.328125 -13.484375 L 12.328125 0 L 10.671875 0 L 3.8125 -11.015625 L 3.59375 -10.984375 Z M 3.59375 0 "/></g></g></g><g fill="#ffffff" fill-opacity="1"><g transform="translate(284.775718, 185.460987)"><g><path d="M 3.625 -6.359375 L 3.625 -1.3125 L 10.5 -1.3125 L 10.5 0 L 2.03125 0 L 2.03125 -13.484375 L 10.34375 -13.484375 L 10.34375 -12.171875 L 3.625 -12.171875 L 3.625 -7.671875 L 9.5625 -7.671875 L 9.5625 -6.359375 Z M 3.625 -6.359375 "/></g></g></g><g fill="#eb1d27" fill-opacity="1"><g transform="translate(78.277089, 185.460987)"><g><path d="M 5.890625 0 L 3.8125 0 L 0.734375 -13.484375 L 2.296875 -13.484375 L 4.828125 -2.328125 L 5.0625 -2.328125 L 8.09375 -13.484375 L 9.5625 -13.484375 L 12.578125 -2.328125 L 12.8125 -2.328125 L 15.359375 -13.484375 L 16.875 -13.484375 L 13.796875 0 L 11.71875 0 L 8.90625 -10.203125 L 8.703125 -10.203125 Z M 5.890625 0 "/></g></g></g><g fill="#ffffff" fill-opacity="1"><g transform="translate(181.720277, 292.176328)"><g><path d="M 5.890625 0.1875 C 5.046875 0.1875 4.285156 0.0703125 3.609375 -0.15625 C 2.929688 -0.382812 2.367188 -0.6875 1.921875 -1.0625 C 1.472656 -1.4375 1.140625 -1.847656 0.921875 -2.296875 L 1.796875 -3.34375 L 2.015625 -3.34375 C 2.859375 -1.9375 4.148438 -1.234375 5.890625 -1.234375 C 6.910156 -1.234375 7.664062 -1.445312 8.15625 -1.875 C 8.65625 -2.300781 8.90625 -2.890625 8.90625 -3.640625 C 8.90625 -4.085938 8.820312 -4.460938 8.65625 -4.765625 C 8.488281 -5.078125 8.21875 -5.34375 7.84375 -5.5625 C 7.46875 -5.78125 6.957031 -5.96875 6.3125 -6.125 L 4.734375 -6.515625 C 3.566406 -6.796875 2.703125 -7.242188 2.140625 -7.859375 C 1.585938 -8.484375 1.3125 -9.265625 1.3125 -10.203125 C 1.3125 -10.878906 1.484375 -11.476562 1.828125 -12 C 2.171875 -12.53125 2.671875 -12.941406 3.328125 -13.234375 C 3.992188 -13.523438 4.789062 -13.671875 5.71875 -13.671875 C 6.726562 -13.671875 7.582031 -13.53125 8.28125 -13.25 C 8.976562 -12.96875 9.539062 -12.539062 9.96875 -11.96875 L 9.1875 -10.921875 L 8.953125 -10.921875 C 8.566406 -11.390625 8.109375 -11.734375 7.578125 -11.953125 C 7.046875 -12.179688 6.425781 -12.296875 5.71875 -12.296875 C 4.78125 -12.296875 4.070312 -12.113281 3.59375 -11.75 C 3.125 -11.382812 2.890625 -10.882812 2.890625 -10.25 C 2.890625 -9.632812 3.0625 -9.144531 3.40625 -8.78125 C 3.757812 -8.425781 4.351562 -8.148438 5.1875 -7.953125 L 6.796875 -7.578125 C 8.109375 -7.265625 9.054688 -6.789062 9.640625 -6.15625 C 10.234375 -5.519531 10.53125 -4.707031 10.53125 -3.71875 C 10.53125 -2.957031 10.359375 -2.28125 10.015625 -1.6875 C 9.671875 -1.101562 9.148438 -0.644531 8.453125 -0.3125 C 7.765625 0.0195312 6.910156 0.1875 5.890625 0.1875 Z M 5.890625 0.1875 "/></g></g></g></svg>